<?xml version="1.0" encoding="UTF-8" standalone="no"?>
<!-- Created with Inkscape (http://www.inkscape.org/) -->

<svg
   width="99.590942mm"
   height="16.933334mm"
   viewBox="0 0 99.590943 16.933335"
   version="1.1"
   id="svg1"
   inkscape:version="1.3 (0e150ed6c4, 2023-07-21)"
   sodipodi:docname="logo-dark.svg"
   xmlns:inkscape="http://www.inkscape.org/namespaces/inkscape"
   xmlns:sodipodi="http://sodipodi.sourceforge.net/DTD/sodipodi-0.dtd"
   xmlns="http://www.w3.org/2000/svg"
   xmlns:svg="http://www.w3.org/2000/svg">
  <sodipodi:namedview
     id="namedview1"
     pagecolor="#ffffff"
     bordercolor="#999999"
     borderopacity="1"
     inkscape:showpageshadow="2"
     inkscape:pageopacity="0"
     inkscape:pagecheckerboard="0"
     inkscape:deskcolor="#d1d1d1"
     inkscape:document-units="mm"
     inkscape:zoom="1.0242632"
     inkscape:cx="63.948406"
     inkscape:cy="-6.346025"
     inkscape:window-width="1920"
     inkscape:window-height="1009"
     inkscape:window-x="-8"
     inkscape:window-y="-8"
     inkscape:window-maximized="1"
     inkscape:current-layer="layer1" />
  <defs
     id="defs1" />
  <g
     inkscape:label="Warstwa 1"
     inkscape:groupmode="layer"
     id="layer1"
     transform="translate(-89.77278,-84.989155)">
    <path
       style="font-size:22.5778px;font-family:Lobster;-inkscape-font-specification:'Lobster, Normal';fill:#ffffff;stroke-width:0.258718"
       d="m 98.051788,101.92249 q -0.883095,0 -1.545415,-0.37532 -0.640243,-0.35324 -0.640243,-1.25841 0,-0.574008 0.287005,-1.280483 0.397393,0.441547 0.728553,0.618167 0.353238,0.176616 0.75063,0.176616 1.103868,0 1.633724,-1.23633 0.551935,-1.236332 0.551935,-2.737591 0,-2.803825 -2.09735,-2.803825 -0.596088,0 -1.015558,0.06623 l -1.810343,8.455626 h -3.179139 l 3.00252,-14.041197 3.267449,-0.441547 -1.037636,4.901173 h 0.132464 q 0.838939,0 1.567492,-0.529857 0.728553,-0.551934 1.170101,-1.368796 0.441553,-0.83894 0.441553,-1.677879 0,-1.015558 -0.728559,-1.699956 -0.706476,-0.684398 -2.185658,-0.684398 -1.346719,0 -2.627206,0.618166 -1.280486,0.596089 -2.097349,1.810343 -0.794785,1.214255 -0.794785,2.936288 0,0.816862 0.154542,1.148023 0.154542,0.309082 0.154542,0.353238 -1.1701,0 -1.766188,-0.463625 -0.596089,-0.485702 -0.596089,-1.567492 0,-1.501261 1.125945,-2.847979 1.125945,-1.346718 2.980443,-2.163581 1.854497,-0.838939 3.907692,-0.838939 1.545415,0 2.60513,0.485701 1.05971,0.485702 1.56749,1.280487 0.52985,0.794785 0.52985,1.744111 0,1.015558 -0.57401,1.964884 -0.574,0.949327 -1.63372,1.545415 1.32464,0.242851 1.96489,1.236332 0.64023,0.971403 0.64023,2.318122 0,1.25841 -0.4857,2.737593 -0.46362,1.479182 -1.56748,2.56098 -1.081796,1.05971 -2.781752,1.05971 z m 8.830952,-0.28701 q -1.63371,0 -2.58304,-0.83894 -0.94933,-0.838933 -0.94933,-2.649279 0,-1.501261 0.61816,-3.333681 0.61817,-1.83242 1.98696,-3.157061 1.3688,-1.346719 3.44407,-1.346719 2.82591,0 2.82591,3.532377 v 0.02208 q 0.0662,0.02208 0.24285,0.02208 0.72855,0 1.67788,-0.375315 0.94932,-0.397393 1.72203,-0.949326 l 0.1987,0.596089 q -0.64025,0.684398 -1.67789,1.170099 -1.01555,0.463624 -2.2298,0.66232 -0.17663,2.00904 -0.90518,3.5103 -0.72855,1.501266 -1.87658,2.318126 -1.14801,0.81686 -2.49474,0.81686 z m 0.8831,-1.98696 q 0.52985,0 1.05971,-0.596088 0.52986,-0.618166 0.92726,-1.655801 0.39739,-1.059714 0.574,-2.3402 -0.59608,-0.132464 -0.59608,-0.927249 0,-0.905172 0.68439,-1.192177 -0.0441,-0.728552 -0.22077,-0.993481 -0.17662,-0.287005 -0.61817,-0.287005 -0.72855,0 -1.41295,1.059713 -0.6844,1.059712 -1.10387,2.538895 -0.41946,1.479183 -0.41946,2.605128 0,1.059713 0.24284,1.435028 0.24286,0.353237 0.8831,0.353237 z m 8.80885,1.98696 q -1.63373,0 -2.58305,-0.83894 -0.94933,-0.838933 -0.94933,-2.649279 0,-1.501261 0.61817,-3.333681 0.61816,-1.83242 1.98696,-3.157061 1.36879,-1.346719 3.44407,-1.346719 2.8259,0 2.8259,3.532377 v 0.02208 q 0.0662,0.02208 0.24284,0.02208 0.72856,0 1.67789,-0.375315 0.94932,-0.397393 1.72203,-0.949326 l 0.19869,0.596089 q -0.64024,0.684398 -1.67787,1.170099 -1.01556,0.463624 -2.22982,0.66232 -0.17662,2.00904 -0.90517,3.5103 -0.72855,1.501266 -1.87657,2.318126 -1.14803,0.81686 -2.49474,0.81686 z m 0.88309,-1.98696 q 0.52986,0 1.05972,-0.596088 0.52985,-0.618166 0.92724,-1.655801 0.39739,-1.059714 0.57402,-2.3402 -0.59609,-0.132464 -0.59609,-0.927249 0,-0.905172 0.6844,-1.192177 -0.0442,-0.728552 -0.22078,-0.993481 -0.17662,-0.287005 -0.61817,-0.287005 -0.72855,0 -1.41295,1.059713 -0.68439,1.059712 -1.10387,2.538895 -0.41947,1.479183 -0.41947,2.605128 0,1.059713 0.24286,1.435028 0.24284,0.353237 0.88309,0.353237 z m 13.88664,2.03112 q -1.36879,0 -2.07527,-0.64024 -0.70647,-0.66233 -0.70647,-1.876581 0,-0.529856 0.13246,-1.148023 l 0.17662,-0.861016 q 0.0883,-0.375316 0.0883,-0.816863 0,-1.059712 -0.79479,-1.059712 -0.35324,0 -0.75063,0.198696 -0.37531,0.198696 -0.88309,0.618165 l -1.14802,5.453104 h -3.17915 l 3.20122,-15.012597 3.26745,-0.441547 -1.6558,7.771228 4.26093,-3.355758 h 2.18566 l -4.41547,3.068752 q 0.33116,-0.08831 0.72855,-0.08831 1.19218,0 1.81034,0.728552 0.61817,0.728553 0.61817,1.854499 0,0.463623 -0.0883,0.838939 l -0.24284,1.103867 q -0.11039,0.397393 -0.11039,0.706476 0,0.816862 0.86101,0.816862 0.66233,0 1.05972,-0.463624 0.39739,-0.485702 0.79479,-1.479183 h 0.92725 q -1.36881,4.084314 -4.06224,4.084314 z m 16.558,0 q -1.34672,0 -1.98696,-0.70647 -0.61816,-0.72856 -0.61816,-1.788273 0,-0.463625 0.11038,-1.037636 0.11039,-0.596089 0.22078,-1.148023 0.13246,-0.551934 0.17662,-0.706475 0.17661,-0.772707 0.33116,-1.523338 0.15454,-0.75063 0.15454,-1.214254 0,-1.125945 -0.79479,-1.125945 -0.57401,0 -1.01556,0.574011 -0.44154,0.551934 -0.70647,1.457105 l -1.50126,7.086828 h -3.17914 l 1.61165,-7.616684 q 0.0662,-0.264929 0.0662,-0.551934 0,-0.971403 -0.66232,-0.971403 -0.61816,0 -1.0818,0.574011 -0.44154,0.551934 -0.70646,1.479182 l -1.50127,7.086828 h -3.17914 l 2.34021,-11.038674 h 3.17913 l -0.24284,1.148023 q 1.12593,-1.25841 2.69343,-1.25841 1.9428,0 2.27397,1.898653 1.21425,-1.876575 3.06875,-1.876575 1.12594,0 1.78827,0.618166 0.66231,0.618166 0.66231,1.876575 0,0.640243 -0.15453,1.435028 -0.15455,0.772707 -0.44155,1.898652 -0.17662,0.684398 -0.33117,1.346719 -0.13245,0.640243 -0.13245,1.015558 0,0.441547 0.19869,0.684398 0.1987,0.242851 0.6844,0.242851 0.66232,0 1.05971,-0.463624 0.39739,-0.485702 0.79478,-1.479183 h 0.92725 q -0.81686,2.428513 -1.89865,3.267453 -1.05971,0.81686 -2.20773,0.81686 z m 5.82845,0 q -1.25841,0 -2.09735,-0.86102 -0.83894,-0.861013 -0.83894,-2.693437 0,-1.633724 0.64024,-3.42199 0.66232,-1.810343 1.94281,-3.046674 1.30257,-1.25841 3.09083,-1.25841 0.90517,0 1.34671,0.309083 0.44155,0.309083 0.44155,0.816863 v 0.154541 l 0.24286,-1.1701 h 3.17914 l -1.58957,7.5063 q -0.0883,0.331161 -0.0883,0.706476 0,0.949331 0.90517,0.949331 0.61816,0 1.05971,-0.574017 0.46362,-0.57401 0.72855,-1.501259 h 0.92726 q -0.81687,2.38435 -2.03112,3.245373 -1.19218,0.83894 -2.40643,0.83894 -0.92726,0 -1.50126,-0.50778 -0.55194,-0.52986 -0.66233,-1.52334 -0.64024,0.90517 -1.43502,1.47918 -0.77272,0.55194 -1.8545,0.55194 z m 1.43503,-2.141506 q 0.55193,0 1.08179,-0.507779 0.55193,-0.529856 0.75063,-1.435028 l 1.05971,-4.989482 q 0,-0.287005 -0.22078,-0.551934 -0.22077,-0.287005 -0.68439,-0.287005 -0.8831,0 -1.58957,1.037635 -0.70648,1.015558 -1.10387,2.472664 -0.39739,1.435028 -0.39739,2.538895 0,1.103868 0.30908,1.412951 0.33116,0.309083 0.79479,0.309083 z m 9.02965,-9.029638 h 3.17914 l -0.287,1.368797 q 0.75062,-0.662322 1.34672,-1.015559 0.61816,-0.353238 1.32463,-0.353238 0.70648,0 1.10387,0.485701 0.41947,0.485703 0.41947,1.170101 0,0.640243 -0.41947,1.125945 -0.41946,0.485701 -1.1701,0.485701 -0.4857,0 -0.66231,-0.220773 -0.15455,-0.24285 -0.24286,-0.684398 -0.0662,-0.287006 -0.13247,-0.41947 -0.0662,-0.132463 -0.24284,-0.132463 -0.46363,0 -0.79479,0.198696 -0.30908,0.176618 -0.81686,0.640243 l -1.76619,8.389391 h -3.17914 z m 15.1009,11.171144 q -1.36879,0 -2.07527,-0.64024 -0.70648,-0.66233 -0.70648,-1.876581 0,-0.529856 0.13247,-1.148023 l 0.17662,-0.861016 q 0.0883,-0.375316 0.0883,-0.816863 0,-1.059712 -0.79479,-1.059712 -0.35324,0 -0.75063,0.198696 -0.37531,0.198696 -0.88309,0.618165 l -1.14802,5.453104 h -3.17915 l 3.20122,-15.012597 3.26745,-0.441547 -1.6558,7.771228 4.26093,-3.355758 h 2.18566 l -4.41547,3.068752 q 0.33116,-0.08831 0.72855,-0.08831 1.19218,0 1.81034,0.728552 0.61817,0.728553 0.61817,1.854499 0,0.463623 -0.0883,0.838939 l -0.24285,1.103867 q -0.11039,0.397393 -0.11039,0.706476 0,0.816862 0.86102,0.816862 0.66232,0 1.05971,-0.463624 0.39739,-0.485702 0.79479,-1.479183 h 0.92725 q -1.36881,4.084314 -4.06224,4.084314 z m 5.65179,0 q -1.05971,0 -1.78826,-0.3974 -0.72855,-0.41946 -1.0818,-1.05971 -0.35323,-0.662319 -0.35323,-1.368794 0,-0.728553 0.35323,-1.258409 0.33117,-0.551934 0.81687,-0.794785 0.86102,-1.545415 1.50126,-3.112907 0.64024,-1.589569 1.21425,-3.42199 l 3.26746,-0.441547 q 0.11038,2.825902 0.37531,6.115427 0.11039,1.324642 0.11039,1.92073 0,1.346718 -0.6844,2.207735 -0.6844,0.86102 -1.69996,1.23633 -0.99348,0.37532 -2.03112,0.37532 z m -0.70647,-1.744113 q 0.81686,0 1.36879,-0.485703 0.55194,-0.485701 0.55194,-1.567492 0,-0.662321 -0.13247,-1.854497 -0.22077,-2.516819 -0.287,-3.377835 -0.52986,1.744111 -1.78827,4.172619 0.50778,0.264928 0.50778,0.772708 0,0.419469 -0.287,0.75063 -0.26493,0.33116 -0.68441,0.33116 -0.46362,0 -0.59608,-0.287005 0,0.794785 0.30908,1.170099 0.33116,0.375316 1.03764,0.375316 z"
       id="text1"
       aria-label="Bookmarks" />
  </g>
</svg>
